<mxfile host="app.diagrams.net" modified="2022-10-14T18:35:23.397Z" agent="5.0 (Windows NT 10.0; Win64; x64) AppleWebKit/537.36 (KHTML, like Gecko) Chrome/106.0.0.0 Safari/537.36" etag="HoTTpZ5daZwZEnoC0Dle" version="20.4.1" type="github">
  <diagram name="Page-1" id="e7e014a7-5840-1c2e-5031-d8a46d1fe8dd">
    <mxGraphModel dx="1568" dy="515" grid="1" gridSize="10" guides="1" tooltips="1" connect="1" arrows="1" fold="1" page="1" pageScale="1" pageWidth="1169" pageHeight="826" background="none" math="0" shadow="0">
      <root>
        <mxCell id="0" />
        <mxCell id="1" parent="0" />
        <mxCell id="nvrEuMOQcaHD5z-Cwk3d-66" style="edgeStyle=orthogonalEdgeStyle;rounded=0;orthogonalLoop=1;jettySize=auto;html=1;entryX=-0.015;entryY=0.503;entryDx=0;entryDy=0;entryPerimeter=0;exitX=0.993;exitY=0.504;exitDx=0;exitDy=0;exitPerimeter=0;endArrow=classic;endFill=1;startArrow=classic;startFill=1;" edge="1" parent="1" source="nvrEuMOQcaHD5z-Cwk3d-62" target="nvrEuMOQcaHD5z-Cwk3d-65">
          <mxGeometry relative="1" as="geometry">
            <mxPoint x="790" y="490" as="targetPoint" />
            <Array as="points" />
          </mxGeometry>
        </mxCell>
        <mxCell id="nvrEuMOQcaHD5z-Cwk3d-61" style="edgeStyle=orthogonalEdgeStyle;rounded=0;orthogonalLoop=1;jettySize=auto;html=1;" edge="1" parent="1" source="18">
          <mxGeometry relative="1" as="geometry">
            <mxPoint x="574.9999999999998" y="460" as="targetPoint" />
          </mxGeometry>
        </mxCell>
        <mxCell id="nvrEuMOQcaHD5z-Cwk3d-60" style="edgeStyle=orthogonalEdgeStyle;rounded=0;orthogonalLoop=1;jettySize=auto;html=1;entryX=-0.005;entryY=0.52;entryDx=0;entryDy=0;entryPerimeter=0;" edge="1" parent="1" target="nvrEuMOQcaHD5z-Cwk3d-56">
          <mxGeometry relative="1" as="geometry">
            <mxPoint x="289.5" y="423" as="sourcePoint" />
            <mxPoint x="809" y="415" as="targetPoint" />
            <Array as="points">
              <mxPoint x="289" y="413" />
              <mxPoint x="809" y="413" />
            </Array>
          </mxGeometry>
        </mxCell>
        <mxCell id="nvrEuMOQcaHD5z-Cwk3d-57" style="edgeStyle=orthogonalEdgeStyle;rounded=0;orthogonalLoop=1;jettySize=auto;html=1;entryX=0;entryY=0.537;entryDx=0;entryDy=0;entryPerimeter=0;" edge="1" parent="1" source="10" target="18">
          <mxGeometry relative="1" as="geometry">
            <mxPoint x="340" y="413" as="sourcePoint" />
          </mxGeometry>
        </mxCell>
        <mxCell id="2" value="Desktop" style="swimlane;whiteSpace=wrap" parent="1" vertex="1">
          <mxGeometry x="164.5" y="128" width="280" height="570" as="geometry" />
        </mxCell>
        <mxCell id="5" value="" style="ellipse;shape=startState;fillColor=#000000;strokeColor=#ff0000;" parent="2" vertex="1">
          <mxGeometry x="100" y="40" width="30" height="30" as="geometry" />
        </mxCell>
        <mxCell id="6" value="" style="edgeStyle=elbowEdgeStyle;elbow=horizontal;verticalAlign=bottom;endArrow=open;endSize=8;strokeColor=#FF0000;endFill=1;rounded=0" parent="2" source="5" target="7" edge="1">
          <mxGeometry x="100" y="40" as="geometry">
            <mxPoint x="115" y="110" as="targetPoint" />
          </mxGeometry>
        </mxCell>
        <mxCell id="nvrEuMOQcaHD5z-Cwk3d-48" style="edgeStyle=orthogonalEdgeStyle;rounded=0;orthogonalLoop=1;jettySize=auto;html=1;entryX=0.5;entryY=0;entryDx=0;entryDy=0;entryPerimeter=0;" edge="1" parent="2" target="8">
          <mxGeometry relative="1" as="geometry">
            <mxPoint x="115.5" y="162" as="sourcePoint" />
          </mxGeometry>
        </mxCell>
        <mxCell id="7" value="start the App " style="" parent="2" vertex="1">
          <mxGeometry x="60" y="110" width="110" height="50" as="geometry" />
        </mxCell>
        <mxCell id="nvrEuMOQcaHD5z-Cwk3d-49" style="edgeStyle=orthogonalEdgeStyle;rounded=0;orthogonalLoop=1;jettySize=auto;html=1;entryX=0.485;entryY=-0.048;entryDx=0;entryDy=0;entryPerimeter=0;exitX=0.503;exitY=0.99;exitDx=0;exitDy=0;exitPerimeter=0;" edge="1" parent="2" source="8" target="10">
          <mxGeometry relative="1" as="geometry">
            <Array as="points">
              <mxPoint x="113" y="232" />
            </Array>
          </mxGeometry>
        </mxCell>
        <mxCell id="8" value="List the Commands" style="" parent="2" vertex="1">
          <mxGeometry x="60" y="182" width="110" height="50" as="geometry" />
        </mxCell>
        <mxCell id="10" value="List the Driectories " style="" parent="2" vertex="1">
          <mxGeometry x="60" y="260" width="110" height="50" as="geometry" />
        </mxCell>
        <mxCell id="3" value="Dir A" style="swimlane;whiteSpace=wrap" parent="1" vertex="1">
          <mxGeometry x="444.5" y="128" width="280.5" height="570" as="geometry" />
        </mxCell>
        <mxCell id="17" value="" style="endArrow=open;strokeColor=#FF0000;endFill=1;rounded=0" parent="3" source="15" edge="1">
          <mxGeometry relative="1" as="geometry">
            <mxPoint x="75" y="220" as="targetPoint" />
          </mxGeometry>
        </mxCell>
        <mxCell id="18" value="open a window" style="" parent="3" vertex="1">
          <mxGeometry x="75.5" y="202" width="110" height="50" as="geometry" />
        </mxCell>
        <mxCell id="24" value="" style="endArrow=open;strokeColor=#FF0000;endFill=1;rounded=0" parent="3" source="16" edge="1">
          <mxGeometry relative="1" as="geometry">
            <mxPoint x="150" y="245" as="targetPoint" />
          </mxGeometry>
        </mxCell>
        <mxCell id="nvrEuMOQcaHD5z-Cwk3d-72" style="edgeStyle=orthogonalEdgeStyle;rounded=0;orthogonalLoop=1;jettySize=auto;html=1;entryX=0.542;entryY=0;entryDx=0;entryDy=0;entryPerimeter=0;startArrow=none;startFill=0;endArrow=classic;endFill=1;exitX=0.5;exitY=1.017;exitDx=0;exitDy=0;exitPerimeter=0;" edge="1" parent="3" source="nvrEuMOQcaHD5z-Cwk3d-62">
          <mxGeometry relative="1" as="geometry">
            <mxPoint x="130.53999999999996" y="422" as="targetPoint" />
          </mxGeometry>
        </mxCell>
        <mxCell id="nvrEuMOQcaHD5z-Cwk3d-62" value="Create a file " style="" vertex="1" parent="3">
          <mxGeometry x="75.5" y="332" width="110" height="50" as="geometry" />
        </mxCell>
        <mxCell id="nvrEuMOQcaHD5z-Cwk3d-74" value="Dir A" style="swimlane;whiteSpace=wrap" vertex="1" parent="3">
          <mxGeometry x="0.5" width="280" height="570" as="geometry" />
        </mxCell>
        <mxCell id="nvrEuMOQcaHD5z-Cwk3d-75" value="" style="endArrow=open;strokeColor=#FF0000;endFill=1;rounded=0" edge="1" parent="nvrEuMOQcaHD5z-Cwk3d-74">
          <mxGeometry relative="1" as="geometry">
            <mxPoint x="75" y="220" as="targetPoint" />
          </mxGeometry>
        </mxCell>
        <mxCell id="nvrEuMOQcaHD5z-Cwk3d-76" value="open a window" style="" vertex="1" parent="nvrEuMOQcaHD5z-Cwk3d-74">
          <mxGeometry x="75.5" y="202" width="110" height="50" as="geometry" />
        </mxCell>
        <mxCell id="nvrEuMOQcaHD5z-Cwk3d-77" value="" style="endArrow=open;strokeColor=#FF0000;endFill=1;rounded=0" edge="1" parent="nvrEuMOQcaHD5z-Cwk3d-74">
          <mxGeometry relative="1" as="geometry">
            <mxPoint x="150" y="245" as="targetPoint" />
          </mxGeometry>
        </mxCell>
        <mxCell id="nvrEuMOQcaHD5z-Cwk3d-79" value="Create a file " style="" vertex="1" parent="nvrEuMOQcaHD5z-Cwk3d-74">
          <mxGeometry x="60" y="330" width="125.5" height="52" as="geometry" />
        </mxCell>
        <mxCell id="nvrEuMOQcaHD5z-Cwk3d-80" value="modify this file" style="whiteSpace=wrap;html=1;fillColor=rgb(255, 255, 255);strokeColor=rgb(0, 0, 0);fontColor=rgb(0, 0, 0);" vertex="1" parent="3">
          <mxGeometry x="65.5" y="428" width="115.5" height="48" as="geometry" />
        </mxCell>
        <mxCell id="4" value="Dir B" style="swimlane;whiteSpace=wrap" parent="1" vertex="1">
          <mxGeometry x="724.5" y="128" width="280" height="570" as="geometry" />
        </mxCell>
        <mxCell id="nvrEuMOQcaHD5z-Cwk3d-85" style="edgeStyle=orthogonalEdgeStyle;rounded=0;orthogonalLoop=1;jettySize=auto;html=1;entryX=0.5;entryY=-0.031;entryDx=0;entryDy=0;entryPerimeter=0;startArrow=none;startFill=0;endArrow=classic;endFill=1;" edge="1" parent="4" source="33" target="nvrEuMOQcaHD5z-Cwk3d-82">
          <mxGeometry relative="1" as="geometry" />
        </mxCell>
        <mxCell id="33" value="sync the changes " style="" parent="4" vertex="1">
          <mxGeometry x="75.5" y="422" width="110" height="50" as="geometry" />
        </mxCell>
        <mxCell id="38" value="" style="ellipse;shape=endState;fillColor=#000000;strokeColor=#ff0000" parent="4" vertex="1">
          <mxGeometry x="250" y="500" width="30" height="30" as="geometry" />
        </mxCell>
        <mxCell id="nvrEuMOQcaHD5z-Cwk3d-56" value="Open a window" style="" vertex="1" parent="4">
          <mxGeometry x="85" y="260" width="110" height="50" as="geometry" />
        </mxCell>
        <mxCell id="nvrEuMOQcaHD5z-Cwk3d-65" value="create same file" style="" vertex="1" parent="4">
          <mxGeometry x="75.5" y="332" width="110" height="50" as="geometry" />
        </mxCell>
        <mxCell id="nvrEuMOQcaHD5z-Cwk3d-73" style="edgeStyle=orthogonalEdgeStyle;rounded=0;orthogonalLoop=1;jettySize=auto;html=1;entryX=-0.015;entryY=0.503;entryDx=0;entryDy=0;entryPerimeter=0;exitX=0.993;exitY=0.504;exitDx=0;exitDy=0;exitPerimeter=0;endArrow=classic;endFill=1;startArrow=classic;startFill=1;" edge="1" parent="4">
          <mxGeometry relative="1" as="geometry">
            <mxPoint x="-93.62" y="446.84000000000003" as="sourcePoint" />
            <mxPoint x="75.50000000000011" y="446.78999999999996" as="targetPoint" />
            <Array as="points" />
          </mxGeometry>
        </mxCell>
        <mxCell id="nvrEuMOQcaHD5z-Cwk3d-81" value="modify this file" style="whiteSpace=wrap;html=1;fillColor=rgb(255, 255, 255);strokeColor=rgb(0, 0, 0);fontColor=rgb(0, 0, 0);" vertex="1" parent="4">
          <mxGeometry x="-214" y="500" width="120" height="60" as="geometry" />
        </mxCell>
        <mxCell id="nvrEuMOQcaHD5z-Cwk3d-82" value="sync the changes " style="" vertex="1" parent="4">
          <mxGeometry x="75.5" y="500" width="110" height="50" as="geometry" />
        </mxCell>
        <mxCell id="nvrEuMOQcaHD5z-Cwk3d-83" style="edgeStyle=orthogonalEdgeStyle;rounded=0;orthogonalLoop=1;jettySize=auto;html=1;entryX=-0.015;entryY=0.503;entryDx=0;entryDy=0;entryPerimeter=0;exitX=0.993;exitY=0.504;exitDx=0;exitDy=0;exitPerimeter=0;endArrow=classic;endFill=1;startArrow=classic;startFill=1;" edge="1" parent="4">
          <mxGeometry relative="1" as="geometry">
            <mxPoint x="-93.61999999999989" y="524.84" as="sourcePoint" />
            <mxPoint x="75.5" y="524.79" as="targetPoint" />
            <Array as="points" />
          </mxGeometry>
        </mxCell>
        <mxCell id="nvrEuMOQcaHD5z-Cwk3d-84" style="edgeStyle=orthogonalEdgeStyle;rounded=0;orthogonalLoop=1;jettySize=auto;html=1;entryX=0.554;entryY=0.016;entryDx=0;entryDy=0;entryPerimeter=0;startArrow=none;startFill=0;endArrow=classic;endFill=1;exitX=0.545;exitY=0.982;exitDx=0;exitDy=0;exitPerimeter=0;" edge="1" parent="4" source="nvrEuMOQcaHD5z-Cwk3d-65" target="33">
          <mxGeometry relative="1" as="geometry">
            <mxPoint x="-138.99999999999977" y="392.8499999999999" as="sourcePoint" />
            <mxPoint x="-138.96000000000004" y="432" as="targetPoint" />
          </mxGeometry>
        </mxCell>
      </root>
    </mxGraphModel>
  </diagram>
</mxfile>
